<mxfile host="app.diagrams.net" modified="2023-11-11T17:05:54.876Z" agent="Mozilla/5.0 (Windows NT 10.0; Win64; x64) AppleWebKit/537.36 (KHTML, like Gecko) Chrome/119.0.0.0 Safari/537.36 Edg/119.0.0.0" etag="LW5W9286ALq5-LBv3-TS" version="22.1.0" type="device">
  <diagram name="Page-1" id="-lQ5bG235tj6lJz4athf">
    <mxGraphModel dx="2131" dy="114" grid="1" gridSize="10" guides="1" tooltips="1" connect="1" arrows="1" fold="1" page="1" pageScale="1" pageWidth="850" pageHeight="1100" math="0" shadow="0">
      <root>
        <mxCell id="0" />
        <mxCell id="1" parent="0" />
        <mxCell id="qq0BzDn6bQFrcWwyqak5-1" value="pelanggan" style="shape=table;startSize=30;container=1;collapsible=1;childLayout=tableLayout;fixedRows=1;rowLines=0;fontStyle=1;align=center;resizeLast=1;html=1;" parent="1" vertex="1">
          <mxGeometry x="53" y="1840" width="180" height="210" as="geometry" />
        </mxCell>
        <mxCell id="qq0BzDn6bQFrcWwyqak5-2" value="" style="shape=tableRow;horizontal=0;startSize=0;swimlaneHead=0;swimlaneBody=0;fillColor=none;collapsible=0;dropTarget=0;points=[[0,0.5],[1,0.5]];portConstraint=eastwest;top=0;left=0;right=0;bottom=1;" parent="qq0BzDn6bQFrcWwyqak5-1" vertex="1">
          <mxGeometry y="30" width="180" height="30" as="geometry" />
        </mxCell>
        <mxCell id="qq0BzDn6bQFrcWwyqak5-3" value="PK" style="shape=partialRectangle;connectable=0;fillColor=none;top=0;left=0;bottom=0;right=0;fontStyle=1;overflow=hidden;whiteSpace=wrap;html=1;" parent="qq0BzDn6bQFrcWwyqak5-2" vertex="1">
          <mxGeometry width="30" height="30" as="geometry">
            <mxRectangle width="30" height="30" as="alternateBounds" />
          </mxGeometry>
        </mxCell>
        <mxCell id="qq0BzDn6bQFrcWwyqak5-4" value="id" style="shape=partialRectangle;connectable=0;fillColor=none;top=0;left=0;bottom=0;right=0;align=left;spacingLeft=6;fontStyle=5;overflow=hidden;whiteSpace=wrap;html=1;" parent="qq0BzDn6bQFrcWwyqak5-2" vertex="1">
          <mxGeometry x="30" width="150" height="30" as="geometry">
            <mxRectangle width="150" height="30" as="alternateBounds" />
          </mxGeometry>
        </mxCell>
        <mxCell id="qq0BzDn6bQFrcWwyqak5-5" value="" style="shape=tableRow;horizontal=0;startSize=0;swimlaneHead=0;swimlaneBody=0;fillColor=none;collapsible=0;dropTarget=0;points=[[0,0.5],[1,0.5]];portConstraint=eastwest;top=0;left=0;right=0;bottom=0;" parent="qq0BzDn6bQFrcWwyqak5-1" vertex="1">
          <mxGeometry y="60" width="180" height="30" as="geometry" />
        </mxCell>
        <mxCell id="qq0BzDn6bQFrcWwyqak5-6" value="" style="shape=partialRectangle;connectable=0;fillColor=none;top=0;left=0;bottom=0;right=0;editable=1;overflow=hidden;whiteSpace=wrap;html=1;" parent="qq0BzDn6bQFrcWwyqak5-5" vertex="1">
          <mxGeometry width="30" height="30" as="geometry">
            <mxRectangle width="30" height="30" as="alternateBounds" />
          </mxGeometry>
        </mxCell>
        <mxCell id="qq0BzDn6bQFrcWwyqak5-7" value="nama" style="shape=partialRectangle;connectable=0;fillColor=none;top=0;left=0;bottom=0;right=0;align=left;spacingLeft=6;overflow=hidden;whiteSpace=wrap;html=1;" parent="qq0BzDn6bQFrcWwyqak5-5" vertex="1">
          <mxGeometry x="30" width="150" height="30" as="geometry">
            <mxRectangle width="150" height="30" as="alternateBounds" />
          </mxGeometry>
        </mxCell>
        <mxCell id="qq0BzDn6bQFrcWwyqak5-8" value="" style="shape=tableRow;horizontal=0;startSize=0;swimlaneHead=0;swimlaneBody=0;fillColor=none;collapsible=0;dropTarget=0;points=[[0,0.5],[1,0.5]];portConstraint=eastwest;top=0;left=0;right=0;bottom=0;" parent="qq0BzDn6bQFrcWwyqak5-1" vertex="1">
          <mxGeometry y="90" width="180" height="30" as="geometry" />
        </mxCell>
        <mxCell id="qq0BzDn6bQFrcWwyqak5-9" value="" style="shape=partialRectangle;connectable=0;fillColor=none;top=0;left=0;bottom=0;right=0;editable=1;overflow=hidden;whiteSpace=wrap;html=1;" parent="qq0BzDn6bQFrcWwyqak5-8" vertex="1">
          <mxGeometry width="30" height="30" as="geometry">
            <mxRectangle width="30" height="30" as="alternateBounds" />
          </mxGeometry>
        </mxCell>
        <mxCell id="qq0BzDn6bQFrcWwyqak5-10" value="email" style="shape=partialRectangle;connectable=0;fillColor=none;top=0;left=0;bottom=0;right=0;align=left;spacingLeft=6;overflow=hidden;whiteSpace=wrap;html=1;" parent="qq0BzDn6bQFrcWwyqak5-8" vertex="1">
          <mxGeometry x="30" width="150" height="30" as="geometry">
            <mxRectangle width="150" height="30" as="alternateBounds" />
          </mxGeometry>
        </mxCell>
        <mxCell id="qq0BzDn6bQFrcWwyqak5-11" value="" style="shape=tableRow;horizontal=0;startSize=0;swimlaneHead=0;swimlaneBody=0;fillColor=none;collapsible=0;dropTarget=0;points=[[0,0.5],[1,0.5]];portConstraint=eastwest;top=0;left=0;right=0;bottom=0;" parent="qq0BzDn6bQFrcWwyqak5-1" vertex="1">
          <mxGeometry y="120" width="180" height="30" as="geometry" />
        </mxCell>
        <mxCell id="qq0BzDn6bQFrcWwyqak5-12" value="" style="shape=partialRectangle;connectable=0;fillColor=none;top=0;left=0;bottom=0;right=0;editable=1;overflow=hidden;whiteSpace=wrap;html=1;" parent="qq0BzDn6bQFrcWwyqak5-11" vertex="1">
          <mxGeometry width="30" height="30" as="geometry">
            <mxRectangle width="30" height="30" as="alternateBounds" />
          </mxGeometry>
        </mxCell>
        <mxCell id="qq0BzDn6bQFrcWwyqak5-13" value="no_hp" style="shape=partialRectangle;connectable=0;fillColor=none;top=0;left=0;bottom=0;right=0;align=left;spacingLeft=6;overflow=hidden;whiteSpace=wrap;html=1;" parent="qq0BzDn6bQFrcWwyqak5-11" vertex="1">
          <mxGeometry x="30" width="150" height="30" as="geometry">
            <mxRectangle width="150" height="30" as="alternateBounds" />
          </mxGeometry>
        </mxCell>
        <mxCell id="qq0BzDn6bQFrcWwyqak5-69" value="" style="shape=tableRow;horizontal=0;startSize=0;swimlaneHead=0;swimlaneBody=0;fillColor=none;collapsible=0;dropTarget=0;points=[[0,0.5],[1,0.5]];portConstraint=eastwest;top=0;left=0;right=0;bottom=0;" parent="qq0BzDn6bQFrcWwyqak5-1" vertex="1">
          <mxGeometry y="150" width="180" height="30" as="geometry" />
        </mxCell>
        <mxCell id="qq0BzDn6bQFrcWwyqak5-70" value="" style="shape=partialRectangle;connectable=0;fillColor=none;top=0;left=0;bottom=0;right=0;editable=1;overflow=hidden;whiteSpace=wrap;html=1;" parent="qq0BzDn6bQFrcWwyqak5-69" vertex="1">
          <mxGeometry width="30" height="30" as="geometry">
            <mxRectangle width="30" height="30" as="alternateBounds" />
          </mxGeometry>
        </mxCell>
        <mxCell id="qq0BzDn6bQFrcWwyqak5-71" value="jenis_kelamin" style="shape=partialRectangle;connectable=0;fillColor=none;top=0;left=0;bottom=0;right=0;align=left;spacingLeft=6;overflow=hidden;whiteSpace=wrap;html=1;" parent="qq0BzDn6bQFrcWwyqak5-69" vertex="1">
          <mxGeometry x="30" width="150" height="30" as="geometry">
            <mxRectangle width="150" height="30" as="alternateBounds" />
          </mxGeometry>
        </mxCell>
        <mxCell id="qq0BzDn6bQFrcWwyqak5-138" value="" style="shape=tableRow;horizontal=0;startSize=0;swimlaneHead=0;swimlaneBody=0;fillColor=none;collapsible=0;dropTarget=0;points=[[0,0.5],[1,0.5]];portConstraint=eastwest;top=0;left=0;right=0;bottom=0;" parent="qq0BzDn6bQFrcWwyqak5-1" vertex="1">
          <mxGeometry y="180" width="180" height="30" as="geometry" />
        </mxCell>
        <mxCell id="qq0BzDn6bQFrcWwyqak5-139" value="" style="shape=partialRectangle;connectable=0;fillColor=none;top=0;left=0;bottom=0;right=0;editable=1;overflow=hidden;whiteSpace=wrap;html=1;" parent="qq0BzDn6bQFrcWwyqak5-138" vertex="1">
          <mxGeometry width="30" height="30" as="geometry">
            <mxRectangle width="30" height="30" as="alternateBounds" />
          </mxGeometry>
        </mxCell>
        <mxCell id="qq0BzDn6bQFrcWwyqak5-140" value="alamat" style="shape=partialRectangle;connectable=0;fillColor=none;top=0;left=0;bottom=0;right=0;align=left;spacingLeft=6;overflow=hidden;whiteSpace=wrap;html=1;" parent="qq0BzDn6bQFrcWwyqak5-138" vertex="1">
          <mxGeometry x="30" width="150" height="30" as="geometry">
            <mxRectangle width="150" height="30" as="alternateBounds" />
          </mxGeometry>
        </mxCell>
        <mxCell id="qq0BzDn6bQFrcWwyqak5-92" value="transaksi" style="shape=table;startSize=30;container=1;collapsible=1;childLayout=tableLayout;fixedRows=1;rowLines=0;fontStyle=1;align=center;resizeLast=1;html=1;whiteSpace=wrap;" parent="1" vertex="1">
          <mxGeometry x="323" y="1670" width="180" height="210" as="geometry" />
        </mxCell>
        <mxCell id="qq0BzDn6bQFrcWwyqak5-111" value="" style="shape=tableRow;horizontal=0;startSize=0;swimlaneHead=0;swimlaneBody=0;fillColor=none;collapsible=0;dropTarget=0;points=[[0,0.5],[1,0.5]];portConstraint=eastwest;top=0;left=0;right=0;bottom=0;html=1;" parent="qq0BzDn6bQFrcWwyqak5-92" vertex="1">
          <mxGeometry y="30" width="180" height="30" as="geometry" />
        </mxCell>
        <mxCell id="qq0BzDn6bQFrcWwyqak5-112" value="PK" style="shape=partialRectangle;connectable=0;fillColor=none;top=0;left=0;bottom=0;right=0;fontStyle=1;overflow=hidden;html=1;whiteSpace=wrap;" parent="qq0BzDn6bQFrcWwyqak5-111" vertex="1">
          <mxGeometry width="60" height="30" as="geometry">
            <mxRectangle width="60" height="30" as="alternateBounds" />
          </mxGeometry>
        </mxCell>
        <mxCell id="qq0BzDn6bQFrcWwyqak5-113" value="id" style="shape=partialRectangle;connectable=0;fillColor=none;top=0;left=0;bottom=0;right=0;align=left;spacingLeft=6;fontStyle=5;overflow=hidden;html=1;whiteSpace=wrap;" parent="qq0BzDn6bQFrcWwyqak5-111" vertex="1">
          <mxGeometry x="60" width="120" height="30" as="geometry">
            <mxRectangle width="120" height="30" as="alternateBounds" />
          </mxGeometry>
        </mxCell>
        <mxCell id="qq0BzDn6bQFrcWwyqak5-93" value="" style="shape=tableRow;horizontal=0;startSize=0;swimlaneHead=0;swimlaneBody=0;fillColor=none;collapsible=0;dropTarget=0;points=[[0,0.5],[1,0.5]];portConstraint=eastwest;top=0;left=0;right=0;bottom=0;html=1;" parent="qq0BzDn6bQFrcWwyqak5-92" vertex="1">
          <mxGeometry y="60" width="180" height="30" as="geometry" />
        </mxCell>
        <mxCell id="qq0BzDn6bQFrcWwyqak5-94" value="FK" style="shape=partialRectangle;connectable=0;fillColor=none;top=0;left=0;bottom=0;right=0;fontStyle=1;overflow=hidden;html=1;whiteSpace=wrap;" parent="qq0BzDn6bQFrcWwyqak5-93" vertex="1">
          <mxGeometry width="60" height="30" as="geometry">
            <mxRectangle width="60" height="30" as="alternateBounds" />
          </mxGeometry>
        </mxCell>
        <mxCell id="qq0BzDn6bQFrcWwyqak5-95" value="id_pelanggan" style="shape=partialRectangle;connectable=0;fillColor=none;top=0;left=0;bottom=0;right=0;align=left;spacingLeft=6;fontStyle=5;overflow=hidden;html=1;whiteSpace=wrap;" parent="qq0BzDn6bQFrcWwyqak5-93" vertex="1">
          <mxGeometry x="60" width="120" height="30" as="geometry">
            <mxRectangle width="120" height="30" as="alternateBounds" />
          </mxGeometry>
        </mxCell>
        <mxCell id="qq0BzDn6bQFrcWwyqak5-96" value="" style="shape=tableRow;horizontal=0;startSize=0;swimlaneHead=0;swimlaneBody=0;fillColor=none;collapsible=0;dropTarget=0;points=[[0,0.5],[1,0.5]];portConstraint=eastwest;top=0;left=0;right=0;bottom=1;html=1;" parent="qq0BzDn6bQFrcWwyqak5-92" vertex="1">
          <mxGeometry y="90" width="180" height="30" as="geometry" />
        </mxCell>
        <mxCell id="qq0BzDn6bQFrcWwyqak5-97" value="FK" style="shape=partialRectangle;connectable=0;fillColor=none;top=0;left=0;bottom=0;right=0;fontStyle=1;overflow=hidden;html=1;whiteSpace=wrap;" parent="qq0BzDn6bQFrcWwyqak5-96" vertex="1">
          <mxGeometry width="60" height="30" as="geometry">
            <mxRectangle width="60" height="30" as="alternateBounds" />
          </mxGeometry>
        </mxCell>
        <mxCell id="qq0BzDn6bQFrcWwyqak5-98" value="id_produk" style="shape=partialRectangle;connectable=0;fillColor=none;top=0;left=0;bottom=0;right=0;align=left;spacingLeft=6;fontStyle=5;overflow=hidden;html=1;whiteSpace=wrap;" parent="qq0BzDn6bQFrcWwyqak5-96" vertex="1">
          <mxGeometry x="60" width="120" height="30" as="geometry">
            <mxRectangle width="120" height="30" as="alternateBounds" />
          </mxGeometry>
        </mxCell>
        <mxCell id="qq0BzDn6bQFrcWwyqak5-99" value="" style="shape=tableRow;horizontal=0;startSize=0;swimlaneHead=0;swimlaneBody=0;fillColor=none;collapsible=0;dropTarget=0;points=[[0,0.5],[1,0.5]];portConstraint=eastwest;top=0;left=0;right=0;bottom=0;html=1;" parent="qq0BzDn6bQFrcWwyqak5-92" vertex="1">
          <mxGeometry y="120" width="180" height="30" as="geometry" />
        </mxCell>
        <mxCell id="qq0BzDn6bQFrcWwyqak5-100" value="" style="shape=partialRectangle;connectable=0;fillColor=none;top=0;left=0;bottom=0;right=0;editable=1;overflow=hidden;html=1;whiteSpace=wrap;" parent="qq0BzDn6bQFrcWwyqak5-99" vertex="1">
          <mxGeometry width="60" height="30" as="geometry">
            <mxRectangle width="60" height="30" as="alternateBounds" />
          </mxGeometry>
        </mxCell>
        <mxCell id="qq0BzDn6bQFrcWwyqak5-101" value="qty" style="shape=partialRectangle;connectable=0;fillColor=none;top=0;left=0;bottom=0;right=0;align=left;spacingLeft=6;overflow=hidden;html=1;whiteSpace=wrap;" parent="qq0BzDn6bQFrcWwyqak5-99" vertex="1">
          <mxGeometry x="60" width="120" height="30" as="geometry">
            <mxRectangle width="120" height="30" as="alternateBounds" />
          </mxGeometry>
        </mxCell>
        <mxCell id="qq0BzDn6bQFrcWwyqak5-102" value="" style="shape=tableRow;horizontal=0;startSize=0;swimlaneHead=0;swimlaneBody=0;fillColor=none;collapsible=0;dropTarget=0;points=[[0,0.5],[1,0.5]];portConstraint=eastwest;top=0;left=0;right=0;bottom=0;html=1;" parent="qq0BzDn6bQFrcWwyqak5-92" vertex="1">
          <mxGeometry y="150" width="180" height="30" as="geometry" />
        </mxCell>
        <mxCell id="qq0BzDn6bQFrcWwyqak5-103" value="" style="shape=partialRectangle;connectable=0;fillColor=none;top=0;left=0;bottom=0;right=0;editable=1;overflow=hidden;html=1;whiteSpace=wrap;" parent="qq0BzDn6bQFrcWwyqak5-102" vertex="1">
          <mxGeometry width="60" height="30" as="geometry">
            <mxRectangle width="60" height="30" as="alternateBounds" />
          </mxGeometry>
        </mxCell>
        <mxCell id="qq0BzDn6bQFrcWwyqak5-104" value="total_harga" style="shape=partialRectangle;connectable=0;fillColor=none;top=0;left=0;bottom=0;right=0;align=left;spacingLeft=6;overflow=hidden;html=1;whiteSpace=wrap;" parent="qq0BzDn6bQFrcWwyqak5-102" vertex="1">
          <mxGeometry x="60" width="120" height="30" as="geometry">
            <mxRectangle width="120" height="30" as="alternateBounds" />
          </mxGeometry>
        </mxCell>
        <mxCell id="qq0BzDn6bQFrcWwyqak5-127" value="" style="shape=tableRow;horizontal=0;startSize=0;swimlaneHead=0;swimlaneBody=0;fillColor=none;collapsible=0;dropTarget=0;points=[[0,0.5],[1,0.5]];portConstraint=eastwest;top=0;left=0;right=0;bottom=0;html=1;" parent="qq0BzDn6bQFrcWwyqak5-92" vertex="1">
          <mxGeometry y="180" width="180" height="30" as="geometry" />
        </mxCell>
        <mxCell id="qq0BzDn6bQFrcWwyqak5-128" value="" style="shape=partialRectangle;connectable=0;fillColor=none;top=0;left=0;bottom=0;right=0;editable=1;overflow=hidden;html=1;whiteSpace=wrap;" parent="qq0BzDn6bQFrcWwyqak5-127" vertex="1">
          <mxGeometry width="60" height="30" as="geometry">
            <mxRectangle width="60" height="30" as="alternateBounds" />
          </mxGeometry>
        </mxCell>
        <mxCell id="qq0BzDn6bQFrcWwyqak5-129" value="tanggal" style="shape=partialRectangle;connectable=0;fillColor=none;top=0;left=0;bottom=0;right=0;align=left;spacingLeft=6;overflow=hidden;html=1;whiteSpace=wrap;" parent="qq0BzDn6bQFrcWwyqak5-127" vertex="1">
          <mxGeometry x="60" width="120" height="30" as="geometry">
            <mxRectangle width="120" height="30" as="alternateBounds" />
          </mxGeometry>
        </mxCell>
        <mxCell id="qq0BzDn6bQFrcWwyqak5-130" value="" style="edgeStyle=entityRelationEdgeStyle;fontSize=12;html=1;endArrow=ERoneToMany;rounded=0;exitX=1;exitY=0.5;exitDx=0;exitDy=0;entryX=0;entryY=0.5;entryDx=0;entryDy=0;" parent="1" source="qq0BzDn6bQFrcWwyqak5-8" target="qq0BzDn6bQFrcWwyqak5-96" edge="1">
          <mxGeometry width="100" height="100" relative="1" as="geometry">
            <mxPoint x="433" y="2150" as="sourcePoint" />
            <mxPoint x="313" y="1768.5714285714287" as="targetPoint" />
          </mxGeometry>
        </mxCell>
        <mxCell id="qq0BzDn6bQFrcWwyqak5-114" value="produk" style="shape=table;startSize=30;container=1;collapsible=1;childLayout=tableLayout;fixedRows=1;rowLines=0;fontStyle=1;align=center;resizeLast=1;html=1;whiteSpace=wrap;" parent="1" vertex="1">
          <mxGeometry x="593" y="1855" width="180" height="180" as="geometry" />
        </mxCell>
        <mxCell id="qq0BzDn6bQFrcWwyqak5-115" value="" style="shape=tableRow;horizontal=0;startSize=0;swimlaneHead=0;swimlaneBody=0;fillColor=none;collapsible=0;dropTarget=0;points=[[0,0.5],[1,0.5]];portConstraint=eastwest;top=0;left=0;right=0;bottom=0;html=1;" parent="qq0BzDn6bQFrcWwyqak5-114" vertex="1">
          <mxGeometry y="30" width="180" height="30" as="geometry" />
        </mxCell>
        <mxCell id="qq0BzDn6bQFrcWwyqak5-116" value="PK" style="shape=partialRectangle;connectable=0;fillColor=none;top=0;left=0;bottom=0;right=0;fontStyle=1;overflow=hidden;html=1;whiteSpace=wrap;" parent="qq0BzDn6bQFrcWwyqak5-115" vertex="1">
          <mxGeometry width="60" height="30" as="geometry">
            <mxRectangle width="60" height="30" as="alternateBounds" />
          </mxGeometry>
        </mxCell>
        <mxCell id="qq0BzDn6bQFrcWwyqak5-117" value="id" style="shape=partialRectangle;connectable=0;fillColor=none;top=0;left=0;bottom=0;right=0;align=left;spacingLeft=6;fontStyle=5;overflow=hidden;html=1;whiteSpace=wrap;" parent="qq0BzDn6bQFrcWwyqak5-115" vertex="1">
          <mxGeometry x="60" width="120" height="30" as="geometry">
            <mxRectangle width="120" height="30" as="alternateBounds" />
          </mxGeometry>
        </mxCell>
        <mxCell id="qq0BzDn6bQFrcWwyqak5-118" value="" style="shape=tableRow;horizontal=0;startSize=0;swimlaneHead=0;swimlaneBody=0;fillColor=none;collapsible=0;dropTarget=0;points=[[0,0.5],[1,0.5]];portConstraint=eastwest;top=0;left=0;right=0;bottom=1;html=1;" parent="qq0BzDn6bQFrcWwyqak5-114" vertex="1">
          <mxGeometry y="60" width="180" height="30" as="geometry" />
        </mxCell>
        <mxCell id="qq0BzDn6bQFrcWwyqak5-119" value="FK" style="shape=partialRectangle;connectable=0;fillColor=none;top=0;left=0;bottom=0;right=0;fontStyle=1;overflow=hidden;html=1;whiteSpace=wrap;" parent="qq0BzDn6bQFrcWwyqak5-118" vertex="1">
          <mxGeometry width="60" height="30" as="geometry">
            <mxRectangle width="60" height="30" as="alternateBounds" />
          </mxGeometry>
        </mxCell>
        <mxCell id="qq0BzDn6bQFrcWwyqak5-120" value="id_kategori_produk" style="shape=partialRectangle;connectable=0;fillColor=none;top=0;left=0;bottom=0;right=0;align=left;spacingLeft=6;fontStyle=5;overflow=hidden;html=1;whiteSpace=wrap;" parent="qq0BzDn6bQFrcWwyqak5-118" vertex="1">
          <mxGeometry x="60" width="120" height="30" as="geometry">
            <mxRectangle width="120" height="30" as="alternateBounds" />
          </mxGeometry>
        </mxCell>
        <mxCell id="qq0BzDn6bQFrcWwyqak5-121" value="" style="shape=tableRow;horizontal=0;startSize=0;swimlaneHead=0;swimlaneBody=0;fillColor=none;collapsible=0;dropTarget=0;points=[[0,0.5],[1,0.5]];portConstraint=eastwest;top=0;left=0;right=0;bottom=0;html=1;" parent="qq0BzDn6bQFrcWwyqak5-114" vertex="1">
          <mxGeometry y="90" width="180" height="30" as="geometry" />
        </mxCell>
        <mxCell id="qq0BzDn6bQFrcWwyqak5-122" value="" style="shape=partialRectangle;connectable=0;fillColor=none;top=0;left=0;bottom=0;right=0;editable=1;overflow=hidden;html=1;whiteSpace=wrap;" parent="qq0BzDn6bQFrcWwyqak5-121" vertex="1">
          <mxGeometry width="60" height="30" as="geometry">
            <mxRectangle width="60" height="30" as="alternateBounds" />
          </mxGeometry>
        </mxCell>
        <mxCell id="qq0BzDn6bQFrcWwyqak5-123" value="nama" style="shape=partialRectangle;connectable=0;fillColor=none;top=0;left=0;bottom=0;right=0;align=left;spacingLeft=6;overflow=hidden;html=1;whiteSpace=wrap;" parent="qq0BzDn6bQFrcWwyqak5-121" vertex="1">
          <mxGeometry x="60" width="120" height="30" as="geometry">
            <mxRectangle width="120" height="30" as="alternateBounds" />
          </mxGeometry>
        </mxCell>
        <mxCell id="qq0BzDn6bQFrcWwyqak5-124" value="" style="shape=tableRow;horizontal=0;startSize=0;swimlaneHead=0;swimlaneBody=0;fillColor=none;collapsible=0;dropTarget=0;points=[[0,0.5],[1,0.5]];portConstraint=eastwest;top=0;left=0;right=0;bottom=0;html=1;" parent="qq0BzDn6bQFrcWwyqak5-114" vertex="1">
          <mxGeometry y="120" width="180" height="30" as="geometry" />
        </mxCell>
        <mxCell id="qq0BzDn6bQFrcWwyqak5-125" value="" style="shape=partialRectangle;connectable=0;fillColor=none;top=0;left=0;bottom=0;right=0;editable=1;overflow=hidden;html=1;whiteSpace=wrap;" parent="qq0BzDn6bQFrcWwyqak5-124" vertex="1">
          <mxGeometry width="60" height="30" as="geometry">
            <mxRectangle width="60" height="30" as="alternateBounds" />
          </mxGeometry>
        </mxCell>
        <mxCell id="qq0BzDn6bQFrcWwyqak5-126" value="harga" style="shape=partialRectangle;connectable=0;fillColor=none;top=0;left=0;bottom=0;right=0;align=left;spacingLeft=6;overflow=hidden;html=1;whiteSpace=wrap;" parent="qq0BzDn6bQFrcWwyqak5-124" vertex="1">
          <mxGeometry x="60" width="120" height="30" as="geometry">
            <mxRectangle width="120" height="30" as="alternateBounds" />
          </mxGeometry>
        </mxCell>
        <mxCell id="qq0BzDn6bQFrcWwyqak5-189" value="" style="shape=tableRow;horizontal=0;startSize=0;swimlaneHead=0;swimlaneBody=0;fillColor=none;collapsible=0;dropTarget=0;points=[[0,0.5],[1,0.5]];portConstraint=eastwest;top=0;left=0;right=0;bottom=0;html=1;" parent="qq0BzDn6bQFrcWwyqak5-114" vertex="1">
          <mxGeometry y="150" width="180" height="30" as="geometry" />
        </mxCell>
        <mxCell id="qq0BzDn6bQFrcWwyqak5-190" value="" style="shape=partialRectangle;connectable=0;fillColor=none;top=0;left=0;bottom=0;right=0;editable=1;overflow=hidden;html=1;whiteSpace=wrap;" parent="qq0BzDn6bQFrcWwyqak5-189" vertex="1">
          <mxGeometry width="60" height="30" as="geometry">
            <mxRectangle width="60" height="30" as="alternateBounds" />
          </mxGeometry>
        </mxCell>
        <mxCell id="qq0BzDn6bQFrcWwyqak5-191" value="stok" style="shape=partialRectangle;connectable=0;fillColor=none;top=0;left=0;bottom=0;right=0;align=left;spacingLeft=6;overflow=hidden;html=1;whiteSpace=wrap;" parent="qq0BzDn6bQFrcWwyqak5-189" vertex="1">
          <mxGeometry x="60" width="120" height="30" as="geometry">
            <mxRectangle width="120" height="30" as="alternateBounds" />
          </mxGeometry>
        </mxCell>
        <mxCell id="qq0BzDn6bQFrcWwyqak5-198" value="" style="edgeStyle=entityRelationEdgeStyle;fontSize=12;html=1;endArrow=ERoneToMany;rounded=0;exitX=0;exitY=0.5;exitDx=0;exitDy=0;entryX=1;entryY=0.5;entryDx=0;entryDy=0;" parent="1" source="qq0BzDn6bQFrcWwyqak5-118" target="qq0BzDn6bQFrcWwyqak5-96" edge="1">
          <mxGeometry width="100" height="100" relative="1" as="geometry">
            <mxPoint x="473" y="1990" as="sourcePoint" />
            <mxPoint x="573" y="1890" as="targetPoint" />
          </mxGeometry>
        </mxCell>
        <mxCell id="qq0BzDn6bQFrcWwyqak5-170" value="kategori_produk" style="shape=table;startSize=30;container=1;collapsible=1;childLayout=tableLayout;fixedRows=1;rowLines=0;fontStyle=1;align=center;resizeLast=1;html=1;" parent="1" vertex="1">
          <mxGeometry x="328" y="2010" width="180" height="120" as="geometry" />
        </mxCell>
        <mxCell id="qq0BzDn6bQFrcWwyqak5-171" value="" style="shape=tableRow;horizontal=0;startSize=0;swimlaneHead=0;swimlaneBody=0;fillColor=none;collapsible=0;dropTarget=0;points=[[0,0.5],[1,0.5]];portConstraint=eastwest;top=0;left=0;right=0;bottom=1;" parent="qq0BzDn6bQFrcWwyqak5-170" vertex="1">
          <mxGeometry y="30" width="180" height="30" as="geometry" />
        </mxCell>
        <mxCell id="qq0BzDn6bQFrcWwyqak5-172" value="PK" style="shape=partialRectangle;connectable=0;fillColor=none;top=0;left=0;bottom=0;right=0;fontStyle=1;overflow=hidden;whiteSpace=wrap;html=1;" parent="qq0BzDn6bQFrcWwyqak5-171" vertex="1">
          <mxGeometry width="30" height="30" as="geometry">
            <mxRectangle width="30" height="30" as="alternateBounds" />
          </mxGeometry>
        </mxCell>
        <mxCell id="qq0BzDn6bQFrcWwyqak5-173" value="id" style="shape=partialRectangle;connectable=0;fillColor=none;top=0;left=0;bottom=0;right=0;align=left;spacingLeft=6;fontStyle=5;overflow=hidden;whiteSpace=wrap;html=1;" parent="qq0BzDn6bQFrcWwyqak5-171" vertex="1">
          <mxGeometry x="30" width="150" height="30" as="geometry">
            <mxRectangle width="150" height="30" as="alternateBounds" />
          </mxGeometry>
        </mxCell>
        <mxCell id="qq0BzDn6bQFrcWwyqak5-174" value="" style="shape=tableRow;horizontal=0;startSize=0;swimlaneHead=0;swimlaneBody=0;fillColor=none;collapsible=0;dropTarget=0;points=[[0,0.5],[1,0.5]];portConstraint=eastwest;top=0;left=0;right=0;bottom=0;" parent="qq0BzDn6bQFrcWwyqak5-170" vertex="1">
          <mxGeometry y="60" width="180" height="30" as="geometry" />
        </mxCell>
        <mxCell id="qq0BzDn6bQFrcWwyqak5-175" value="" style="shape=partialRectangle;connectable=0;fillColor=none;top=0;left=0;bottom=0;right=0;editable=1;overflow=hidden;whiteSpace=wrap;html=1;" parent="qq0BzDn6bQFrcWwyqak5-174" vertex="1">
          <mxGeometry width="30" height="30" as="geometry">
            <mxRectangle width="30" height="30" as="alternateBounds" />
          </mxGeometry>
        </mxCell>
        <mxCell id="qq0BzDn6bQFrcWwyqak5-176" value="kategori" style="shape=partialRectangle;connectable=0;fillColor=none;top=0;left=0;bottom=0;right=0;align=left;spacingLeft=6;overflow=hidden;whiteSpace=wrap;html=1;" parent="qq0BzDn6bQFrcWwyqak5-174" vertex="1">
          <mxGeometry x="30" width="150" height="30" as="geometry">
            <mxRectangle width="150" height="30" as="alternateBounds" />
          </mxGeometry>
        </mxCell>
        <mxCell id="qq0BzDn6bQFrcWwyqak5-177" value="" style="shape=tableRow;horizontal=0;startSize=0;swimlaneHead=0;swimlaneBody=0;fillColor=none;collapsible=0;dropTarget=0;points=[[0,0.5],[1,0.5]];portConstraint=eastwest;top=0;left=0;right=0;bottom=0;" parent="qq0BzDn6bQFrcWwyqak5-170" vertex="1">
          <mxGeometry y="90" width="180" height="30" as="geometry" />
        </mxCell>
        <mxCell id="qq0BzDn6bQFrcWwyqak5-178" value="" style="shape=partialRectangle;connectable=0;fillColor=none;top=0;left=0;bottom=0;right=0;editable=1;overflow=hidden;whiteSpace=wrap;html=1;" parent="qq0BzDn6bQFrcWwyqak5-177" vertex="1">
          <mxGeometry width="30" height="30" as="geometry">
            <mxRectangle width="30" height="30" as="alternateBounds" />
          </mxGeometry>
        </mxCell>
        <mxCell id="qq0BzDn6bQFrcWwyqak5-179" value="deskripsi" style="shape=partialRectangle;connectable=0;fillColor=none;top=0;left=0;bottom=0;right=0;align=left;spacingLeft=6;overflow=hidden;whiteSpace=wrap;html=1;" parent="qq0BzDn6bQFrcWwyqak5-177" vertex="1">
          <mxGeometry x="30" width="150" height="30" as="geometry">
            <mxRectangle width="150" height="30" as="alternateBounds" />
          </mxGeometry>
        </mxCell>
        <mxCell id="qq0BzDn6bQFrcWwyqak5-199" value="" style="edgeStyle=entityRelationEdgeStyle;fontSize=12;html=1;endArrow=ERoneToMany;rounded=0;entryX=0;entryY=0.5;entryDx=0;entryDy=0;exitX=1;exitY=0.5;exitDx=0;exitDy=0;" parent="1" source="qq0BzDn6bQFrcWwyqak5-174" target="qq0BzDn6bQFrcWwyqak5-124" edge="1">
          <mxGeometry width="100" height="100" relative="1" as="geometry">
            <mxPoint x="543" y="2190" as="sourcePoint" />
            <mxPoint x="643" y="2090" as="targetPoint" />
          </mxGeometry>
        </mxCell>
        <mxCell id="5-iEXYm7ZoTl9YxpNATm-1" value="&lt;b&gt;PELANGGAN&lt;/b&gt;" style="whiteSpace=wrap;html=1;align=center;" vertex="1" parent="1">
          <mxGeometry x="93" y="1280" width="100" height="40" as="geometry" />
        </mxCell>
        <mxCell id="5-iEXYm7ZoTl9YxpNATm-2" value="membeli" style="shape=rhombus;perimeter=rhombusPerimeter;whiteSpace=wrap;html=1;align=center;" vertex="1" parent="1">
          <mxGeometry x="358" y="1270" width="120" height="60" as="geometry" />
        </mxCell>
        <mxCell id="5-iEXYm7ZoTl9YxpNATm-3" value="&lt;b&gt;PRODUK&lt;/b&gt;" style="whiteSpace=wrap;html=1;align=center;" vertex="1" parent="1">
          <mxGeometry x="648" y="1280" width="100" height="40" as="geometry" />
        </mxCell>
        <mxCell id="5-iEXYm7ZoTl9YxpNATm-4" value="&lt;b&gt;KATEGORI PRODUK&lt;/b&gt;" style="whiteSpace=wrap;html=1;align=center;" vertex="1" parent="1">
          <mxGeometry x="648" y="1540" width="100" height="40" as="geometry" />
        </mxCell>
        <mxCell id="5-iEXYm7ZoTl9YxpNATm-5" value="memiliki" style="shape=rhombus;perimeter=rhombusPerimeter;whiteSpace=wrap;html=1;align=center;" vertex="1" parent="1">
          <mxGeometry x="638" y="1400" width="120" height="60" as="geometry" />
        </mxCell>
        <mxCell id="5-iEXYm7ZoTl9YxpNATm-6" value="" style="edgeStyle=entityRelationEdgeStyle;fontSize=12;html=1;endArrow=ERoneToMany;rounded=0;entryX=0;entryY=0.5;entryDx=0;entryDy=0;exitX=1;exitY=0.5;exitDx=0;exitDy=0;" edge="1" parent="1" source="5-iEXYm7ZoTl9YxpNATm-1" target="5-iEXYm7ZoTl9YxpNATm-2">
          <mxGeometry width="100" height="100" relative="1" as="geometry">
            <mxPoint x="183" y="1430" as="sourcePoint" />
            <mxPoint x="283" y="1330" as="targetPoint" />
          </mxGeometry>
        </mxCell>
        <mxCell id="5-iEXYm7ZoTl9YxpNATm-7" value="" style="edgeStyle=entityRelationEdgeStyle;fontSize=12;html=1;endArrow=ERoneToMany;rounded=0;entryX=1;entryY=0.5;entryDx=0;entryDy=0;exitX=0;exitY=0.5;exitDx=0;exitDy=0;" edge="1" parent="1" source="5-iEXYm7ZoTl9YxpNATm-3" target="5-iEXYm7ZoTl9YxpNATm-2">
          <mxGeometry width="100" height="100" relative="1" as="geometry">
            <mxPoint x="238" y="1310" as="sourcePoint" />
            <mxPoint x="368" y="1310" as="targetPoint" />
          </mxGeometry>
        </mxCell>
        <mxCell id="5-iEXYm7ZoTl9YxpNATm-8" value="" style="whiteSpace=wrap;html=1;align=center;fillColor=none;verticalAlign=top;" vertex="1" parent="1">
          <mxGeometry x="353" y="1270" width="130" height="60" as="geometry" />
        </mxCell>
        <mxCell id="5-iEXYm7ZoTl9YxpNATm-9" value="&lt;b&gt;TRANSAKSI&lt;/b&gt;" style="text;html=1;strokeColor=none;fillColor=none;align=center;verticalAlign=middle;whiteSpace=wrap;rounded=0;" vertex="1" parent="1">
          <mxGeometry x="388" y="1241" width="60" height="30" as="geometry" />
        </mxCell>
        <mxCell id="5-iEXYm7ZoTl9YxpNATm-10" value="id" style="ellipse;whiteSpace=wrap;html=1;fillColor=#FF0000;strokeColor=#36393d;fontColor=#FFFFFF;" vertex="1" parent="1">
          <mxGeometry x="78" y="1241" width="60" height="30" as="geometry" />
        </mxCell>
        <mxCell id="5-iEXYm7ZoTl9YxpNATm-11" value="nama" style="ellipse;whiteSpace=wrap;html=1;" vertex="1" parent="1">
          <mxGeometry x="148" y="1241" width="60" height="30" as="geometry" />
        </mxCell>
        <mxCell id="5-iEXYm7ZoTl9YxpNATm-12" value="no_hp" style="ellipse;whiteSpace=wrap;html=1;" vertex="1" parent="1">
          <mxGeometry x="53" y="1330" width="60" height="30" as="geometry" />
        </mxCell>
        <mxCell id="5-iEXYm7ZoTl9YxpNATm-13" value="jk" style="ellipse;whiteSpace=wrap;html=1;" vertex="1" parent="1">
          <mxGeometry x="118" y="1330" width="60" height="30" as="geometry" />
        </mxCell>
        <mxCell id="5-iEXYm7ZoTl9YxpNATm-14" value="alamat" style="ellipse;whiteSpace=wrap;html=1;" vertex="1" parent="1">
          <mxGeometry x="188" y="1330" width="60" height="30" as="geometry" />
        </mxCell>
        <mxCell id="5-iEXYm7ZoTl9YxpNATm-15" value="email" style="ellipse;whiteSpace=wrap;html=1;" vertex="1" parent="1">
          <mxGeometry x="118" y="1370" width="60" height="30" as="geometry" />
        </mxCell>
        <mxCell id="5-iEXYm7ZoTl9YxpNATm-17" value="id" style="ellipse;whiteSpace=wrap;html=1;fillColor=#FF0000;strokeColor=#36393d;fontColor=#FFFFFF;" vertex="1" parent="1">
          <mxGeometry x="388.5" y="1182" width="60" height="30" as="geometry" />
        </mxCell>
        <mxCell id="5-iEXYm7ZoTl9YxpNATm-19" value="qty" style="ellipse;whiteSpace=wrap;html=1;" vertex="1" parent="1">
          <mxGeometry x="313" y="1340" width="60" height="30" as="geometry" />
        </mxCell>
        <mxCell id="5-iEXYm7ZoTl9YxpNATm-20" value="total_harga" style="ellipse;whiteSpace=wrap;html=1;" vertex="1" parent="1">
          <mxGeometry x="381" y="1340" width="75" height="30" as="geometry" />
        </mxCell>
        <mxCell id="5-iEXYm7ZoTl9YxpNATm-21" value="tanggal" style="ellipse;whiteSpace=wrap;html=1;" vertex="1" parent="1">
          <mxGeometry x="468" y="1340" width="60" height="30" as="geometry" />
        </mxCell>
        <mxCell id="5-iEXYm7ZoTl9YxpNATm-22" value="nama" style="ellipse;whiteSpace=wrap;html=1;" vertex="1" parent="1">
          <mxGeometry x="598" y="1240" width="60" height="30" as="geometry" />
        </mxCell>
        <mxCell id="5-iEXYm7ZoTl9YxpNATm-24" value="id_pelanggan" style="ellipse;whiteSpace=wrap;html=1;fontColor=#FFFFFF;fillColor=#000099;" vertex="1" parent="1">
          <mxGeometry x="328.5" y="1212" width="84" height="29" as="geometry" />
        </mxCell>
        <mxCell id="5-iEXYm7ZoTl9YxpNATm-25" value="id_produk" style="ellipse;whiteSpace=wrap;html=1;fontColor=#FFFFFF;fillColor=#000099;" vertex="1" parent="1">
          <mxGeometry x="423.5" y="1212" width="84" height="29" as="geometry" />
        </mxCell>
        <mxCell id="5-iEXYm7ZoTl9YxpNATm-26" value="id" style="ellipse;whiteSpace=wrap;html=1;fillColor=#FF0000;strokeColor=#36393d;fontColor=#FFFFFF;" vertex="1" parent="1">
          <mxGeometry x="603.25" y="1199" width="60" height="30" as="geometry" />
        </mxCell>
        <mxCell id="5-iEXYm7ZoTl9YxpNATm-27" value="id_kategori_produk" style="ellipse;whiteSpace=wrap;html=1;fontColor=#FFFFFF;fillColor=#000099;" vertex="1" parent="1">
          <mxGeometry x="673.25" y="1200" width="119.5" height="28" as="geometry" />
        </mxCell>
        <mxCell id="5-iEXYm7ZoTl9YxpNATm-28" value="" style="fontSize=12;html=1;endArrow=ERoneToMany;rounded=0;entryX=0.5;entryY=1;entryDx=0;entryDy=0;exitX=0.5;exitY=0;exitDx=0;exitDy=0;" edge="1" parent="1" source="5-iEXYm7ZoTl9YxpNATm-4" target="5-iEXYm7ZoTl9YxpNATm-5">
          <mxGeometry width="100" height="100" relative="1" as="geometry">
            <mxPoint x="688" y="1590" as="sourcePoint" />
            <mxPoint x="788" y="1490" as="targetPoint" />
          </mxGeometry>
        </mxCell>
        <mxCell id="5-iEXYm7ZoTl9YxpNATm-30" value="" style="fontSize=12;html=1;endArrow=ERmandOne;startArrow=ERmandOne;rounded=0;entryX=0.5;entryY=1;entryDx=0;entryDy=0;exitX=0.5;exitY=0;exitDx=0;exitDy=0;" edge="1" parent="1" source="5-iEXYm7ZoTl9YxpNATm-5" target="5-iEXYm7ZoTl9YxpNATm-3">
          <mxGeometry width="100" height="100" relative="1" as="geometry">
            <mxPoint x="558" y="1540" as="sourcePoint" />
            <mxPoint x="658" y="1440" as="targetPoint" />
          </mxGeometry>
        </mxCell>
        <mxCell id="5-iEXYm7ZoTl9YxpNATm-31" value="harga" style="ellipse;whiteSpace=wrap;html=1;" vertex="1" parent="1">
          <mxGeometry x="668" y="1240" width="60" height="30" as="geometry" />
        </mxCell>
        <mxCell id="5-iEXYm7ZoTl9YxpNATm-32" value="stok" style="ellipse;whiteSpace=wrap;html=1;" vertex="1" parent="1">
          <mxGeometry x="738" y="1240" width="60" height="30" as="geometry" />
        </mxCell>
        <mxCell id="5-iEXYm7ZoTl9YxpNATm-33" value="id" style="ellipse;whiteSpace=wrap;html=1;fillColor=#FF0000;strokeColor=#36393d;fontColor=#FFFFFF;" vertex="1" parent="1">
          <mxGeometry x="598.25" y="1590" width="60" height="30" as="geometry" />
        </mxCell>
        <mxCell id="5-iEXYm7ZoTl9YxpNATm-34" value="kategori" style="ellipse;whiteSpace=wrap;html=1;" vertex="1" parent="1">
          <mxGeometry x="667.75" y="1591" width="60" height="30" as="geometry" />
        </mxCell>
        <mxCell id="5-iEXYm7ZoTl9YxpNATm-35" value="desk" style="ellipse;whiteSpace=wrap;html=1;" vertex="1" parent="1">
          <mxGeometry x="737.75" y="1591" width="60" height="30" as="geometry" />
        </mxCell>
        <mxCell id="5-iEXYm7ZoTl9YxpNATm-36" value="1" style="text;html=1;strokeColor=none;fillColor=none;align=center;verticalAlign=middle;whiteSpace=wrap;rounded=0;" vertex="1" parent="1">
          <mxGeometry x="193" y="1280" width="30" height="20" as="geometry" />
        </mxCell>
        <mxCell id="5-iEXYm7ZoTl9YxpNATm-37" value="&lt;b&gt;&lt;font color=&quot;#006600&quot;&gt;M&lt;/font&gt;&lt;/b&gt;" style="text;html=1;strokeColor=none;fillColor=none;align=center;verticalAlign=middle;whiteSpace=wrap;rounded=0;" vertex="1" parent="1">
          <mxGeometry x="618.25" y="1280" width="30" height="20" as="geometry" />
        </mxCell>
        <mxCell id="5-iEXYm7ZoTl9YxpNATm-38" value="&lt;b&gt;&lt;font color=&quot;#006600&quot;&gt;M&lt;/font&gt;&lt;/b&gt;" style="text;html=1;strokeColor=none;fillColor=none;align=center;verticalAlign=middle;whiteSpace=wrap;rounded=0;" vertex="1" parent="1">
          <mxGeometry x="193" y="1300" width="30" height="20" as="geometry" />
        </mxCell>
        <mxCell id="5-iEXYm7ZoTl9YxpNATm-40" value="1" style="text;html=1;strokeColor=none;fillColor=none;align=center;verticalAlign=middle;whiteSpace=wrap;rounded=0;" vertex="1" parent="1">
          <mxGeometry x="618.25" y="1300" width="30" height="20" as="geometry" />
        </mxCell>
        <mxCell id="5-iEXYm7ZoTl9YxpNATm-41" value="1" style="text;html=1;strokeColor=none;fillColor=none;align=center;verticalAlign=middle;whiteSpace=wrap;rounded=0;" vertex="1" parent="1">
          <mxGeometry x="697.75" y="1320" width="30" height="20" as="geometry" />
        </mxCell>
        <mxCell id="5-iEXYm7ZoTl9YxpNATm-42" value="1" style="text;html=1;strokeColor=none;fillColor=none;align=center;verticalAlign=middle;whiteSpace=wrap;rounded=0;" vertex="1" parent="1">
          <mxGeometry x="668" y="1520" width="30" height="20" as="geometry" />
        </mxCell>
        <mxCell id="5-iEXYm7ZoTl9YxpNATm-43" value="&lt;b&gt;&lt;font color=&quot;#006600&quot;&gt;M&lt;/font&gt;&lt;/b&gt;" style="text;html=1;strokeColor=none;fillColor=none;align=center;verticalAlign=middle;whiteSpace=wrap;rounded=0;" vertex="1" parent="1">
          <mxGeometry x="667.75" y="1320" width="30" height="20" as="geometry" />
        </mxCell>
        <mxCell id="5-iEXYm7ZoTl9YxpNATm-44" value="1" style="text;html=1;strokeColor=none;fillColor=none;align=center;verticalAlign=middle;whiteSpace=wrap;rounded=0;" vertex="1" parent="1">
          <mxGeometry x="698" y="1520" width="30" height="20" as="geometry" />
        </mxCell>
      </root>
    </mxGraphModel>
  </diagram>
</mxfile>
